<svg xmlns="http://www.w3.org/2000/svg" viewBox="0 0 1440 320"><path fill='#CFE8F7' fill-opacity="1" d="M0,288L30,288C60,288,120,288,180,288C240,288,300,288,360,261.3C420,235,480,181,540,165.3C600,149,660,171,720,181.3C780,192,840,192,900,197.3C960,203,1020,213,1080,208C1140,203,1200,181,1260,165.3C1320,149,1380,139,1410,133.3L1440,128L1440,0L1410,0C1380,0,1320,0,1260,0C1200,0,1140,0,1080,0C1020,0,960,0,900,0C840,0,780,0,720,0C660,0,600,0,540,0C480,0,420,0,360,0C300,0,240,0,180,0C120,0,60,0,30,0L0,0Z"></path></svg>